<?xml version="1.0" encoding="UTF-8" standalone="no"?>
<!-- Created with Inkscape (http://www.inkscape.org/) -->

<svg
   width="62"
   height="62"
   version="1.1"
   viewBox="0 0 62 62"
   id="svg4"
   sodipodi:docname="applications-history.svg"
   inkscape:version="1.4.4 (unknown)"
   xmlns:inkscape="http://www.inkscape.org/namespaces/inkscape"
   xmlns:sodipodi="http://sodipodi.sourceforge.net/DTD/sodipodi-0.dtd"
   xmlns:xlink="http://www.w3.org/1999/xlink"
   xmlns="http://www.w3.org/2000/svg"
   xmlns:svg="http://www.w3.org/2000/svg">
  <defs
     id="defs4">
    <linearGradient
       id="linearGradient1"
       inkscape:collect="always">
      <stop
         style="stop-color:#cccccc;stop-opacity:1"
         offset="0"
         id="stop1" />
      <stop
         style="stop-color:#f2f2f2;stop-opacity:1"
         offset="1"
         id="stop8" />
    </linearGradient>
    <linearGradient
       id="linearGradient4"
       inkscape:collect="always">
      <stop
         style="stop-color:#007ebb;stop-opacity:1;"
         offset="0"
         id="stop4" />
      <stop
         style="stop-color:#3369bd;stop-opacity:1;"
         offset="0.20090972"
         id="stop6" />
      <stop
         style="stop-color:#007ebb;stop-opacity:1;"
         offset="0.85683924"
         id="stop7" />
      <stop
         style="stop-color:#007ebb;stop-opacity:1;"
         offset="1"
         id="stop5" />
    </linearGradient>
    <linearGradient
       inkscape:collect="always"
       xlink:href="#linearGradient4"
       id="linearGradient5"
       x1="55.718971"
       y1="57.554916"
       x2="13.310161"
       y2="4.9824572"
       gradientUnits="userSpaceOnUse"
       gradientTransform="translate(-0.5,-1.0000005)" />
    <linearGradient
       id="linear1"
       gradientUnits="userSpaceOnUse"
       x1="0"
       y1="0"
       x2="0"
       y2="1"
       gradientTransform="matrix(40.094098,0,0,25.700927,10.953894,17.658587)">
      <stop
         offset="0"
         style="stop-color:rgb(100%,100%,100%);stop-opacity:1;"
         id="stop4-3" />
      <stop
         offset="1"
         style="stop-color:rgb(80.000001%,80.000001%,80.000001%);stop-opacity:1;"
         id="stop5-6" />
    </linearGradient>
    <linearGradient
       id="linear0"
       gradientUnits="userSpaceOnUse"
       x1="0"
       y1="0"
       x2="0"
       y2="1"
       gradientTransform="matrix(39.803229,0,0,25.40213,12.243847,19.543338)">
      <stop
         offset="0"
         style="stop-color:rgb(100%,100%,100%);stop-opacity:1;"
         id="stop2" />
      <stop
         offset="1"
         style="stop-color:rgb(80.000001%,80.000001%,80.000001%);stop-opacity:1;"
         id="stop3" />
    </linearGradient>
    <linearGradient
       inkscape:collect="always"
       xlink:href="#linearGradient1"
       id="linearGradient8"
       x1="28.601303"
       y1="54.365929"
       x2="28.602215"
       y2="16.365931"
       gradientUnits="userSpaceOnUse" />
  </defs>
  <sodipodi:namedview
     id="namedview4"
     pagecolor="#ffffff"
     bordercolor="#000000"
     borderopacity="0.25"
     inkscape:showpageshadow="2"
     inkscape:pageopacity="0.0"
     inkscape:pagecheckerboard="0"
     inkscape:deskcolor="#d1d1d1"
     inkscape:zoom="8.2643105"
     inkscape:cx="25.047462"
     inkscape:cy="37.692195"
     inkscape:window-width="1920"
     inkscape:window-height="994"
     inkscape:window-x="0"
     inkscape:window-y="0"
     inkscape:window-maximized="1"
     inkscape:current-layer="svg4" />
  <rect
     x="3.5"
     y="3.9824567"
     width="55"
     height="55.017544"
     ry="7.8596497"
     style="opacity:0.2;stroke-width:0.982303"
     id="rect1" />
  <rect
     x="3.5"
     y="2.9999995"
     width="55"
     height="55.017544"
     ry="7.8596497"
     style="fill:url(#linearGradient5);stroke-width:0.982303"
     id="rect2" />
  <path
     d="M 11.357144,2.9999995 C 7.0042942,2.9999995 3.5,6.5054115 3.5,10.85965 v 0.982455 c 0,-4.3542373 3.5042942,-7.8596495 7.857144,-7.8596495 h 39.285713 c 4.35285,0 7.857143,3.5054122 7.857143,7.8596495 V 10.85965 c 0,-4.3542385 -3.504293,-7.8596505 -7.857143,-7.8596505 z"
     style="opacity:0.1;fill:#ffffff;stroke-width:0.982303"
     id="path4" />
  <g
     id="g1"
     transform="matrix(0.99380203,0,0,1,2.5764619,-4.36593)"
     style="fill:url(#linearGradient8)">
    <path
       d="m 34.37793,54.36556 v -8.004319 c 0,-1.34299 1.092892,-2.435882 2.435882,-2.435882 h 0.27769 c 1.342991,0 2.435883,1.092892 2.435883,2.435882 v 8.004319 h 3.200728 V 39.425332 H 14.473555 V 54.36556 h 3.200729 v -8.004319 c 0,-1.34299 1.092892,-2.435882 2.435882,-2.435882 h 0.27769 c 1.34299,0 2.435882,1.092892 2.435882,2.435882 v 8.004319 h 2.853226 v -8.374727 c 0,-1.521627 1.23906,-2.760645 2.760645,-2.760645 h 0.324783 c 1.521626,0 2.760645,1.23906 2.760645,2.760645 v 8.374727 z"
       id="path1"
       style="stroke-width:0.415722;fill:url(#linearGradient8)" />
    <path
       d="m 36.813646,44.899978 c -0.805462,0 -1.461513,0.656051 -1.461513,1.461513 v 8.004319 h 3.200728 v -8.004319 c 0,-0.805462 -0.656051,-1.461513 -1.461513,-1.461513 z"
       id="path2-3"
       style="stroke-width:0.415722;fill:url(#linearGradient8)" />
    <path
       d="M 42.519849,32.465312 H 14.473152 v 1.810678 h 28.256221 v -1.810678 z"
       id="path3"
       style="stroke-width:0.415722;fill:url(#linearGradient8)" />
    <path
       d="m 13.846659,35.25065 c -0.805462,0 -1.461514,0.656051 -1.461514,1.461513 v 1.739215 h 32.431319 v -1.739215 c 0,-0.805462 -0.656051,-1.461513 -1.461513,-1.461513 z"
       id="path4-6"
       style="stroke-width:0.415722;fill:url(#linearGradient8)" />
    <path
       d="m 14.683092,28.615309 h 0.0097 c 0.97437,0 1.903218,-0.404357 2.617761,-1.139994 0.690182,-0.709637 1.086407,-1.658024 1.060425,-2.534949 -0.03735,-1.217941 -0.875303,-2.111079 -1.234196,-2.439125 -0.198117,-0.181878 -0.212734,-0.490427 -0.03085,-0.688519 0.181879,-0.198117 0.490428,-0.211108 0.688519,-0.03085 0.558648,0.511546 1.50375,1.597952 1.550852,3.129265 0.03573,1.152964 -0.451433,2.335195 -1.334843,3.242966 -0.784343,0.805461 -1.778168,1.294267 -2.840213,1.407926 v 1.9292 h 26.86442 v -1.9292 c -1.062045,-0.113679 -2.057492,-0.602469 -2.840214,-1.40793 -0.883409,-0.909393 -1.370594,-2.091582 -1.334842,-3.242966 0.04709,-1.531354 0.990583,-2.617761 1.550852,-3.129265 0.198116,-0.181879 0.506682,-0.167262 0.688519,0.03085 0.181878,0.198116 0.167261,0.506682 -0.03085,0.688519 -0.358885,0.32803 -1.196822,1.221184 -1.234196,2.439125 -0.02598,0.876925 0.370251,1.82527 1.060424,2.534949 0.714544,0.735621 1.645013,1.139994 2.617761,1.139994 h 0.0097 c 1.98603,-0.0049 3.640812,-1.66451 3.689535,-3.700884 v -1.628795 c 0,-3.816205 -3.104946,-6.919696 -6.919696,-6.919696 H 17.91277 c -3.814584,0 -6.919696,3.104946 -6.919696,6.919696 v 1.628799 c 0.04872,2.036374 1.703504,3.69602 3.689534,3.700884 z"
       id="path5"
       style="stroke-width:0.415722;fill:url(#linearGradient8)" />
    <path
       d="m 28.438923,44.20489 c -0.985719,0 -1.786317,0.802219 -1.786317,1.786317 v 8.374723 h 3.897396 v -8.374723 c 0,-0.984098 -0.800598,-1.786317 -1.786317,-1.786317 z"
       id="path6"
       style="stroke-width:0.415722;fill:url(#linearGradient8)" />
    <path
       d="m 20.109929,44.899978 c -0.805462,0 -1.461513,0.656051 -1.461513,1.461513 v 8.004319 h 3.200728 v -8.004319 c 0,-0.805462 -0.656051,-1.461513 -1.461513,-1.461513 z"
       id="path7"
       style="stroke-width:0.415722;fill:url(#linearGradient8)" />
  </g>
</svg>
