<?xml version="1.0" encoding="UTF-8" standalone="no"?>
<svg
   width="62"
   height="62"
   version="1.1"
   id="svg3"
   sodipodi:docname="blink.svg"
   inkscape:version="1.4.4 (unknown)"
   xmlns:inkscape="http://www.inkscape.org/namespaces/inkscape"
   xmlns:sodipodi="http://sodipodi.sourceforge.net/DTD/sodipodi-0.dtd"
   xmlns:xlink="http://www.w3.org/1999/xlink"
   xmlns="http://www.w3.org/2000/svg"
   xmlns:svg="http://www.w3.org/2000/svg">
  <defs
     id="defs3">
    <linearGradient
       id="paint584_linear_890_11"
       x1="496"
       y1="294"
       x2="482.5"
       y2="307.5"
       gradientUnits="userSpaceOnUse"
       gradientTransform="translate(-454.00025,-257.70022)">
      <stop
         offset="0.284815"
         stop-color="#71706E"
         id="stop1911" />
      <stop
         offset="0.744047"
         stop-color="#B9AA99"
         id="stop1912" />
    </linearGradient>
    <linearGradient
       id="paint585_linear_890_11"
       x1="493"
       y1="299"
       x2="455"
       y2="261"
       gradientUnits="userSpaceOnUse"
       gradientTransform="translate(-454.00025,-257.70022)">
      <stop
         offset="0.151316"
         stop-color="#2E2E41"
         id="stop1913" />
      <stop
         offset="1"
         stop-color="#566C80"
         id="stop1914" />
    </linearGradient>
    <linearGradient
       id="paint586_linear_890_11"
       x1="481.15799"
       y1="286.60699"
       x2="479.504"
       y2="284.953"
       gradientUnits="userSpaceOnUse"
       gradientTransform="translate(-454.00025,-257.70022)">
      <stop
         offset="0.252542"
         stop-color="#71706E"
         id="stop1915" />
      <stop
         offset="1"
         stop-color="#B9AA99"
         id="stop1916" />
    </linearGradient>
    <linearGradient
       inkscape:collect="always"
       xlink:href="#linearGradient29"
       id="linearGradient30"
       x1="30.782633"
       y1="60"
       x2="30.193521"
       y2="5"
       gradientUnits="userSpaceOnUse"
       gradientTransform="matrix(0.98214286,0,0,0.98245614,-0.42857152,-0.92982455)" />
    <linearGradient
       id="linearGradient29"
       inkscape:collect="always">
      <stop
         style="stop-color:#2d3c52;stop-opacity:1;"
         offset="0"
         id="stop29" />
      <stop
         style="stop-color:#3f5174;stop-opacity:1;"
         offset="1"
         id="stop30" />
    </linearGradient>
    <linearGradient
       id="linear0"
       gradientUnits="userSpaceOnUse"
       x1="0"
       y1="0"
       x2="0"
       y2="1"
       gradientTransform="matrix(97.523816,0,0,72.564985,-15.238095,-2.7531923)">
      <stop
         offset="0"
         style="stop-color:#2478ff;stop-opacity:1;"
         id="stop1-3" />
      <stop
         offset="1"
         style="stop-color:#0049bf;stop-opacity:1;"
         id="stop2-6" />
    </linearGradient>
  </defs>
  <sodipodi:namedview
     id="namedview3"
     pagecolor="#ffffff"
     bordercolor="#000000"
     borderopacity="0.25"
     inkscape:showpageshadow="2"
     inkscape:pageopacity="0.0"
     inkscape:pagecheckerboard="0"
     inkscape:deskcolor="#d1d1d1"
     inkscape:zoom="4.1653009"
     inkscape:cx="34.091175"
     inkscape:cy="37.092158"
     inkscape:window-width="1920"
     inkscape:window-height="994"
     inkscape:window-x="0"
     inkscape:window-y="0"
     inkscape:window-maximized="1"
     inkscape:current-layer="svg3" />
  <rect
     style="opacity:0.2;stroke-width:0.9823"
     width="55"
     height="55.017544"
     x="3.5"
     y="3.9824562"
     ry="13.754386"
     id="rect1" />
  <rect
     style="fill:url(#linearGradient30);stroke-width:0.9823"
     width="55"
     height="55.017544"
     x="3.5"
     y="3"
     ry="13.754386"
     id="rect2" />
  <path
     style="opacity:0.1;fill:#ffffff;stroke-width:0.9823"
     d="M 17.25,3 C 9.6324999,3 3.4999999,9.1344561 3.4999999,16.754386 v 0.982456 c 0,-7.61993 6.1325,-13.7543858 13.7500001,-13.7543858 h 27.5 c 7.6175,0 13.75,6.1344558 13.75,13.7543858 V 16.754386 C 58.5,9.1344561 52.3675,3 44.75,3 Z"
     id="path28" />
  <g
     id="g1"
     transform="translate(14.356089,-45.679728)"
     style="fill:#f2f2f2;fill-opacity:1">
    <path
       d="m -3,76.695449 c 15.948502,0 17.63035,1.44744 17.772428,1.726421 a 0.45289703,0.45289703 0 0 0 0.0398,0.06447 c 1.342374,1.759056 1.82512,17.873116 1.82512,17.873116 h 0.01472 c 0,0 0.483143,-16.11804 1.823527,-17.875106 a 0.42026297,0.42026297 0 0 0 0.0398,-0.06447 c 0.143669,-0.278583 1.823925,-1.726421 17.772427,-1.726421 v -0.02706 c -15.948502,0 -17.63035,-1.44744 -17.772427,-1.726421 a 0.42026297,0.42026297 0 0 0 -0.0398,-0.06447 C 17.135213,73.11804 16.65207,57 16.65207,57 h -0.01472 c 0,0 -0.482746,16.115652 -1.823926,17.872718 a 0.45289703,0.45289703 0 0 0 -0.0398,0.06447 c -0.143272,0.278583 -1.823926,1.726421 -17.7724281,1.726421 z"
       id="path1-3"
       style="stroke-width:0.0397976;fill:#f2f2f2;fill-opacity:1" />
    <polygon
       points="428.7,512.54 428.7,518.82 12.9,975.5 476.93,556.2 480.18,556.2 492,912 510.86,556.2 513.57,556.2 759.58,767.2 558.18,512.48 914.74,493.64 556.8,481.69 556.8,472.36 979.5,8.1 519.34,423.9 511.31,423.9 493.5,68.1 480.27,423.9 468.96,423.9 210.9,213.3 428.7,475.33 428.7,481.7 71.06,493.64 "
       id="polygon1"
       transform="matrix(0.03979763,0,0,0.03979763,-3,56.999602)"
       style="fill:#f2f2f2;fill-opacity:1" />
    <path
       d="m 16.664009,66.699876 a 9.8626487,9.8626487 0 0 1 5.517145,1.677072 c 0.346638,-0.337086 0.91853,-0.92808 1.243676,-1.26636 A 11.660706,11.660706 0 0 0 9.4634237,67.440112 l 1.2337263,1.256809 a 9.8658325,9.8658325 0 0 1 5.966859,-1.997045 z"
       id="path2"
       style="stroke-width:0.0397976;fill:#f2f2f2;fill-opacity:1" />
    <path
       d="m 26.574017,76.609884 a 9.8670264,9.8670264 0 0 1 -1.994657,5.963277 l 1.246063,1.24686 a 11.660706,11.660706 0 0 0 0.358179,-13.944294 l -1.258003,1.258003 a 9.8626487,9.8626487 0 0 1 1.648418,5.476154 z"
       id="path3"
       style="stroke-width:0.0397976;fill:#f2f2f2;fill-opacity:1" />
    <path
       d="m 16.664009,86.519892 a 9.8618527,9.8618527 0 0 1 -5.50242,-1.667521 L 9.9039835,86.109976 A 11.660706,11.660706 0 0 0 23.76311,85.856863 l -1.249247,-1.249247 a 9.8650365,9.8650365 0 0 1 -5.849854,1.912276 z"
       id="path4"
       style="stroke-width:0.0397976;fill:#f2f2f2;fill-opacity:1" />
    <path
       d="M 6.7540011,76.609884 A 9.8654345,9.8654345 0 0 1 8.535343,70.940712 L 7.292065,69.674749 A 11.660706,11.660706 0 0 0 7.279728,83.528702 L 8.5329553,82.275077 A 9.8658325,9.8658325 0 0 1 6.7540011,76.609884 Z"
       id="path5"
       style="stroke-width:0.0397976;fill:#f2f2f2;fill-opacity:1" />
  </g>
</svg>
