<?xml version="1.0" encoding="UTF-8" standalone="no"?>
<svg
   width="62"
   height="62"
   version="1.1"
   id="svg29"
   sodipodi:docname="netxms.svg"
   inkscape:version="1.4.4 (unknown)"
   xmlns:inkscape="http://www.inkscape.org/namespaces/inkscape"
   xmlns:sodipodi="http://sodipodi.sourceforge.net/DTD/sodipodi-0.dtd"
   xmlns:xlink="http://www.w3.org/1999/xlink"
   xmlns="http://www.w3.org/2000/svg"
   xmlns:svg="http://www.w3.org/2000/svg">
  <defs
     id="defs29">
    <linearGradient
       id="linearGradient29"
       inkscape:collect="always">
      <stop
         style="stop-color:#2d3d53;stop-opacity:1;"
         offset="0"
         id="stop29" />
      <stop
         style="stop-color:#354864;stop-opacity:1;"
         offset="1"
         id="stop30" />
    </linearGradient>
    <linearGradient
       inkscape:collect="always"
       xlink:href="#linearGradient29"
       id="linearGradient30"
       x1="30.782633"
       y1="60"
       x2="30.193521"
       y2="5"
       gradientUnits="userSpaceOnUse"
       gradientTransform="matrix(0.98214286,0,0,0.98245614,-0.42857152,-0.92982455)" />
  </defs>
  <sodipodi:namedview
     id="namedview29"
     pagecolor="#ffffff"
     bordercolor="#000000"
     borderopacity="0.25"
     inkscape:showpageshadow="2"
     inkscape:pageopacity="0.0"
     inkscape:pagecheckerboard="0"
     inkscape:deskcolor="#d1d1d1"
     inkscape:zoom="7.0710678"
     inkscape:cx="20.364675"
     inkscape:cy="25.667976"
     inkscape:window-width="1920"
     inkscape:window-height="994"
     inkscape:window-x="0"
     inkscape:window-y="0"
     inkscape:window-maximized="1"
     inkscape:current-layer="svg29" />
  <rect
     style="opacity:0.2;stroke-width:0.9823"
     width="55"
     height="55.017544"
     x="3.5"
     y="3.9824562"
     ry="13.754386"
     id="rect1" />
  <rect
     style="fill:url(#linearGradient30);stroke-width:0.9823"
     width="55"
     height="55.017544"
     x="3.5"
     y="3"
     ry="13.754386"
     id="rect2" />
  <path
     style="opacity:0.1;fill:#ffffff;stroke-width:0.9823"
     d="M 17.25,3 C 9.6324999,3 3.4999999,9.1344561 3.4999999,16.754386 v 0.982456 c 0,-7.61993 6.1325,-13.7543858 13.7500001,-13.7543858 h 27.5 c 7.6175,0 13.75,6.1344558 13.75,13.7543858 V 16.754386 C 58.5,9.1344561 52.3675,3 44.75,3 Z"
     id="path28" />
  <g
     id="g1"
     transform="matrix(0.89087932,0,0,0.9,13.390879,-32.000001)">
    <path
       style="fill:#00ccff;fill-opacity:1;fill-rule:nonzero;stroke:none;stroke-width:0.955556"
       d="m 23.922182,50.005182 c -1.211984,-0.0635 -2.382949,0.459538 -3.195914,1.41224 -1.454383,1.737282 -1.290299,4.367491 0.372919,5.884344 L 33.882855,68.973303 39.133557,62.707879 26.357344,51.036344 C 25.674901,50.419887 24.81346,50.061224 23.907268,50.012653 Z M 1.7111223,64.605812 27.278454,87.930206 c 3.315254,3.037444 8.372032,2.686251 11.277072,-0.780836 2.905041,-3.467095 2.569417,-8.734976 -0.757026,-11.764942 L 12.238626,52.052562 Z m 0,0"
       id="path3-3" />
    <path
       style="fill:#8d5fd3;fill-opacity:1;fill-rule:nonzero;stroke:none;stroke-width:0.955556"
       d="M 6.9804685,50.005182 C 2.5576484,50.005182 -1,53.722595 -1,58.340395 V 81.66479 c 0,4.617809 3.5576484,8.335211 7.9804685,8.335211 4.4265495,0 7.9916575,-3.717402 7.9916575,-8.335211 V 58.340395 c 0,-4.6178 -3.565108,-8.335213 -7.9916575,-8.335213 z m 29.5612965,0 c -2.200222,0 -3.990234,1.868046 -3.990234,4.162002 v 11.671538 c 0,2.297697 1.790012,4.165741 3.990234,4.165741 2.200222,0 3.990235,-1.868044 3.990235,-4.165741 V 54.167184 c 0,-2.293956 -1.790013,-4.162002 -3.990235,-4.162002 z m 0,0"
       id="path4" />
  </g>
</svg>
