<?xml version="1.0" encoding="UTF-8" standalone="no"?>
<!-- Created with Inkscape (http://www.inkscape.org/) -->

<svg
   width="16"
   height="16"
   viewBox="0 0 16 16"
   version="1.1"
   id="svg1"
   xml:space="preserve"
   sodipodi:docname="shelly-tray.svg"
   inkscape:version="1.4.4 (unknown)"
   xmlns:inkscape="http://www.inkscape.org/namespaces/inkscape"
   xmlns:sodipodi="http://sodipodi.sourceforge.net/DTD/sodipodi-0.dtd"
   xmlns="http://www.w3.org/2000/svg"
   xmlns:svg="http://www.w3.org/2000/svg"><sodipodi:namedview
     id="namedview1"
     pagecolor="#ffffff"
     bordercolor="#000000"
     borderopacity="0.25"
     inkscape:showpageshadow="2"
     inkscape:pageopacity="0.0"
     inkscape:pagecheckerboard="false"
     inkscape:deskcolor="#d1d1d1"
     inkscape:document-units="px"
     inkscape:zoom="23.422912"
     inkscape:cx="9.1363533"
     inkscape:cy="7.4926636"
     inkscape:window-width="1920"
     inkscape:window-height="996"
     inkscape:window-x="0"
     inkscape:window-y="0"
     inkscape:window-maximized="1"
     inkscape:current-layer="layer1" /><defs
     id="defs1"><clipPath
       clipPathUnits="userSpaceOnUse"
       id="clipPath9"><g
         inkscape:label="Clip"
         id="use9"><rect
           style="fill:none;stroke:#a000a0;stroke-width:0.559102;stroke-linecap:round;stroke-linejoin:round;stroke-opacity:1"
           id="rect1"
           width="51.200001"
           height="48.301888"
           x="-14.490566"
           y="81.871696"
           ry="7.625" /></g></clipPath></defs><g
     inkscape:label="Ebene 1"
     inkscape:groupmode="layer"
     id="layer1"><path
       id="use10"
       d="M 7.9602851,2.0000251 C 7.791476,1.9991021 7.5567727,2.0234783 7.2626885,2.1024175 6.9686046,2.1813568 6.6205221,2.2866033 6.3605009,2.6516149 5.9644261,3.2076154 5.9010741,3.8841235 5.9204361,4.4958466 c 0.019364,0.6117228 0.1315796,1.1908474 0.1924597,1.5783597 0.1334559,0.84947 0.679398,3.7192979 0.679398,3.7192979 A 0.50405625,0.53176724 0 0 0 7.3856642,10.210638 0.50405625,0.53176724 0 0 0 7.7810608,9.5852283 c 0,0 -0.5531137,-2.9191806 -0.6733321,-3.6843912 C 7.0417718,5.4810088 6.9435716,4.9538033 6.9279527,4.4603579 6.9123334,3.9669131 6.9893841,3.5393667 7.1667352,3.2904052 c -0.0068,0.00955 0.1504151,-0.1050869 0.3441106,-0.1570796 0.1936954,-0.051992 0.4290794,-0.069894 0.4439246,-0.069812 a 0.50405625,0.53176724 0 0 0 0.045222,-0.00179 0.50405625,0.53176724 0 0 0 0.045222,0.00179 c 0.014846,-8.1e-5 0.2502292,0.017821 0.4439247,0.069811 C 8.6828325,3.1853186 8.840599,3.2999502 8.8337992,3.2904047 9.0111479,3.5393664 9.0876464,3.9669126 9.0720275,4.4603575 9.0564083,4.9538033 8.9587603,5.4810088 8.8928032,5.9008371 8.7725847,6.666048 8.2194708,9.5852283 8.2194708,9.5852283 A 0.50405625,0.53176724 0 0 0 8.6148677,10.210638 0.50405625,0.53176724 0 0 0 9.2076863,9.7935042 c 0,0 0.5459414,-2.8698279 0.6793979,-3.7192979 C 9.9479683,5.686694 10.060183,5.1075694 10.079544,4.4958466 10.098907,3.8841235 10.035553,3.2076154 9.6394795,2.6516149 9.379458,2.2866033 9.031927,2.1813568 8.7378432,2.1024175 8.443759,2.0234782 8.2090559,1.9991015 8.040247,2.0000251 a 0.50405625,0.53176724 0 0 0 -0.04026,0.00179 0.50405625,0.53176724 0 0 0 -0.039702,-0.00179 z M 4.8285464,3.7744436 C 4.5805845,3.7607645 4.325968,3.8037825 4.0625692,3.8884718 3.7113705,4.0013909 3.3366246,4.1931293 3.1063381,4.6034754 2.8096459,5.1321489 2.7996749,5.738992 2.9061581,6.2865548 3.0126423,6.8341176 3.2372071,7.3437156 3.5078009,7.7543771 3.6939113,8.0368242 3.9991588,8.5117718 4.2770866,8.9417828 4.5550149,9.3717945 4.778091,9.7224869 4.9068537,9.8941515 a 0.50405625,0.53176724 0 0 0 0.7080741,0.087268 0.50405625,0.53176724 0 0 0 0.08272,-0.7470006 C 5.6633527,9.1886953 5.3865036,8.7706841 5.1097906,8.3425535 4.8330776,7.9144218 4.5291152,7.441358 4.3355412,7.1475839 4.1433539,6.8559137 3.9673891,6.4513379 3.8938223,6.0730426 3.8202559,5.6947476 3.8506355,5.3645463 3.9737841,5.1451092 4.0021658,5.0945362 4.1519163,4.971195 4.3564967,4.9054172 4.5610771,4.8396392 4.8119066,4.8362182 4.8704572,4.8489852 A 0.50405625,0.53176724 0 0 0 5.4660336,4.4359236 0.50405625,0.53176724 0 0 0 5.0744972,3.8076046 C 4.9933072,3.7899026 4.9112003,3.7790036 4.8285464,3.7744436 Z m 6.3428836,0 c -0.08266,0.00454 -0.164752,0.015457 -0.24595,0.033165 a 0.50405625,0.53176724 0 0 0 -0.391532,0.6283186 0.50405625,0.53176724 0 0 0 0.595576,0.4130615 c 0.05855,-0.012769 0.309378,-0.00933 0.51396,0.056435 0.204581,0.065779 0.354335,0.1891195 0.382715,0.2396917 0.123148,0.2194373 0.154077,0.5496386 0.08053,0.9279338 -0.07357,0.378295 -0.24953,0.7828707 -0.441718,1.0745411 -0.193585,0.2937729 -0.497547,0.7668369 -0.774264,1.1949688 -0.276712,0.4281307 -0.553563,0.846142 -0.587857,0.8918634 a 0.50405625,0.53176724 0 0 0 0.08217,0.7470002 0.50405625,0.53176724 0 0 0 0.708074,-0.08727 C 11.221892,9.7224859 11.445524,9.3717935 11.72345,8.9417819 12.001377,8.5117709 12.306626,8.0368232 12.492736,7.7543761 12.763331,7.3437145 12.987897,6.8341165 13.09438,6.2865536 13.200861,5.738992 13.190888,5.1321489 12.894193,4.6034754 12.663909,4.1931293 12.288611,4.0013909 11.937414,3.8884718 11.674014,3.8037823 11.419397,3.7607645 11.17143,3.7744436 Z M 2.2951412,6.7060157 A 0.50405625,0.53176724 0 0 0 2.229517,6.7083357 0.50405625,0.53176724 0 0 0 1.889818,6.9020674 C 1.4506333,7.4729592 1.3905503,8.2434218 1.6692345,8.9033818 2.0663899,9.843897 2.7139128,10.478048 3.476919,10.9716 c 0.7630067,0.493552 1.6456783,0.873876 2.6343224,1.377062 A 0.50405625,0.53176724 0 0 0 6.7845733,12.100826 0.50405625,0.53176724 0 0 0 6.5496518,11.391057 C 5.5309053,10.872556 4.6642018,10.492173 4.0041146,10.065193 3.3440269,9.6382149 2.8945233,9.1918681 2.5901723,8.4711258 2.4937497,8.2427839 2.5600478,7.7189636 2.6728915,7.5722811 A 0.50405625,0.53176724 0 0 0 2.5989949,6.8246981 0.50405625,0.53176724 0 0 0 2.2951412,6.7060157 Z m 11.4102488,0 a 0.50405625,0.53176724 0 0 0 -0.303855,0.1186824 0.50405625,0.53176724 0 0 0 -0.07386,0.747583 c 0.112846,0.1466825 0.178589,0.6705028 0.08218,0.8988447 -0.304355,0.7207431 -0.753306,1.1670891 -1.41339,1.5940672 -0.66009,0.42698 -1.526799,0.807363 -2.5455439,1.325868 A 0.50405625,0.53176724 0 0 0 9.2159852,12.10083 0.50405625,0.53176724 0 0 0 9.888765,12.348667 c 0.988635,-0.503188 1.871309,-0.883512 2.634314,-1.377063 0.763007,-0.493552 1.410531,-1.1277033 1.807688,-2.0682184 0.278681,-0.65996 0.218601,-1.4304226 -0.220585,-2.001311 a 0.50405625,0.53176724 0 0 0 -0.339153,-0.1937317 0.50405625,0.53176724 0 0 0 -0.06566,-0.00232 z M 4.0416138,11.709293 a 0.50405625,0.53176724 0 0 0 -0.4731523,0.412482 c -0.078076,0.358911 -0.099661,0.816922 0.2806925,1.196131 0.5920761,0.590293 1.4470954,0.646848 2.1744049,0.675443 0.7273101,0.02858 1.3483189,-0.0442 1.3483189,-0.0442 A 0.50405625,0.53176724 0 0 0 7.8180085,13.362124 0.50405625,0.53176724 0 0 0 7.2615857,12.891466 c 0,0 -0.5576262,0.06423 -1.1999759,0.039 -0.6292702,-0.02471 -1.3177109,-0.206218 -1.5076905,-0.375251 0.00113,5.63e-4 0.00292,9.21e-4 0.0039,0.0013 h 5.648e-4 5.646e-4 5.648e-4 5.646e-4 l 5.649e-4,-5.95e-4 h 5.647e-4 l 5.646e-4,-5.96e-4 h 5.647e-4 v -5.96e-4 l 5.646e-4,-5.95e-4 5.646e-4,-5.97e-4 c 0.010553,-0.01947 -0.025554,-0.13202 -0.012131,-0.19373 A 0.50405625,0.53176724 0 0 0 4.172441,11.722655 0.50405625,0.53176724 0 0 0 4.041745,11.709275 Z m 7.9173072,0 a 0.50405625,0.53176724 0 0 0 -0.13125,0.0134 0.50405625,0.53176724 0 0 0 -0.378304,0.637044 c 0.01343,0.06174 -0.02256,0.174865 -0.01214,0.194315 l 5.63e-4,5.96e-4 v 5.96e-4 h 5.67e-4 l 5.64e-4,5.95e-4 h 5.64e-4 l 5.66e-4,5.96e-4 h 5.65e-4 5.64e-4 5.66e-4 5.64e-4 5.63e-4 c 0.0011,-2.01e-4 0.0025,-5.96e-4 0.0038,-0.0013 -0.189956,0.169037 -0.877867,0.350506 -1.5071375,0.375247 -0.6423508,0.02526 -1.1999768,-0.03895 -1.1999768,-0.03895 a 0.50405625,0.53176724 0 0 0 -0.5564522,0.470661 0.50405625,0.53176724 0 0 0 0.4461309,0.587011 c 0,0 0.6204574,0.07278 1.347767,0.0442 0.7273096,-0.02858 1.5828796,-0.08514 2.1749556,-0.675444 0.380353,-0.379209 0.358769,-0.837219 0.280696,-1.196131 a 0.50405625,0.53176724 0 0 0 -0.473184,-0.412467 z"
       style="fill:#f2f2f2;fill-opacity:1;stroke-width:0.981305" /></g></svg>
